<mxfile host="app.diagrams.net" agent="Mozilla/5.0 (X11; Ubuntu; Linux x86_64; rv:131.0) Gecko/20100101 Firefox/131.0" version="24.7.17">
  <diagram name="第 1 页" id="10BlcElfr6JbKMy2dO7y">
    <mxGraphModel dx="1048" dy="711" grid="1" gridSize="10" guides="1" tooltips="1" connect="1" arrows="1" fold="1" page="1" pageScale="1" pageWidth="827" pageHeight="1169" math="0" shadow="0">
      <root>
        <mxCell id="0" />
        <mxCell id="1" parent="0" />
        <mxCell id="CLLIpG-PeRc-xpUPDkqh-1" value="" style="ellipse;whiteSpace=wrap;html=1;aspect=fixed;" vertex="1" parent="1">
          <mxGeometry x="340" y="650" width="310" height="310" as="geometry" />
        </mxCell>
        <mxCell id="CLLIpG-PeRc-xpUPDkqh-2" value="" style="ellipse;whiteSpace=wrap;html=1;aspect=fixed;" vertex="1" parent="1">
          <mxGeometry x="437.5" y="747.5" width="115" height="115" as="geometry" />
        </mxCell>
        <mxCell id="CLLIpG-PeRc-xpUPDkqh-3" value="" style="endArrow=none;html=1;rounded=0;entryX=0.5;entryY=0;entryDx=0;entryDy=0;" edge="1" parent="1" source="CLLIpG-PeRc-xpUPDkqh-2" target="CLLIpG-PeRc-xpUPDkqh-1">
          <mxGeometry width="50" height="50" relative="1" as="geometry">
            <mxPoint x="390" y="890" as="sourcePoint" />
            <mxPoint x="440" y="840" as="targetPoint" />
            <Array as="points">
              <mxPoint x="495" y="700" />
            </Array>
          </mxGeometry>
        </mxCell>
        <mxCell id="CLLIpG-PeRc-xpUPDkqh-6" value="" style="endArrow=none;html=1;rounded=0;" edge="1" parent="1">
          <mxGeometry width="50" height="50" relative="1" as="geometry">
            <mxPoint x="580" y="680" as="sourcePoint" />
            <mxPoint x="610" y="640" as="targetPoint" />
          </mxGeometry>
        </mxCell>
        <mxCell id="CLLIpG-PeRc-xpUPDkqh-7" value="Text" style="edgeLabel;html=1;align=center;verticalAlign=middle;resizable=0;points=[];" vertex="1" connectable="0" parent="CLLIpG-PeRc-xpUPDkqh-6">
          <mxGeometry x="0.32" y="1" relative="1" as="geometry">
            <mxPoint as="offset" />
          </mxGeometry>
        </mxCell>
      </root>
    </mxGraphModel>
  </diagram>
</mxfile>
